<svg width="12" height="10" viewBox="0 0 12 10" fill="none" xmlns="http://www.w3.org/2000/svg">
<path d="M7.86883 9.7948C7.61816 8.23945 7.38677 6.76999 7.14092 5.2385L6.74564 5.55816C5.86543 6.32651 4.85316 6.93247 3.75689 7.34728C3.58451 7.42209 3.39607 7.45341 3.20846 7.43842C3.02085 7.42343 2.83992 7.36261 2.6819 7.2614C2.00221 6.83201 1.29841 6.43125 0.599426 6.02094C0.704151 5.86943 0.850808 5.75104 1.02181 5.67996C1.19282 5.60887 1.38091 5.58812 1.56354 5.62018C2.1143 5.67825 2.66795 5.70533 3.22181 5.70128C3.39571 5.69859 3.56435 5.64184 3.70387 5.53907C5.63209 3.91693 7.56031 2.28843 9.48854 0.653573C9.98958 0.21704 10.6386 -0.0163728 11.3059 -5.29999e-05C11.9036 -5.29999e-05 12.1543 0.391169 11.8988 0.954146C11.7577 1.23639 11.5629 1.48909 11.3252 1.69842C10.7612 2.20892 10.1731 2.69079 9.58495 3.17266C9.50864 3.22821 9.44572 3.29981 9.40071 3.3823C9.3557 3.4648 9.32972 3.55614 9.32463 3.64976C9.1993 5.26235 9.04504 6.87495 8.91971 8.48755C8.91862 8.65087 8.8772 8.81145 8.79906 8.95531C8.72093 9.09916 8.60844 9.22194 8.4714 9.31293C8.26221 9.46307 8.06108 9.62391 7.86883 9.7948Z" fill="#47585B"/>
<path d="M2.55652 3.01512C3.00483 2.63344 3.31817 2.13726 4.04126 2.24699C4.76434 2.35673 5.48743 2.3615 6.24908 2.41398L6.49493 2.44738C5.94538 2.92447 5.44404 3.32524 4.93788 3.74031C4.90903 3.76106 4.87611 3.7756 4.84124 3.78299C4.80637 3.79039 4.77033 3.79048 4.73542 3.78325C4.06054 3.57333 3.38566 3.35863 2.7156 3.13917C2.66739 3.12486 2.63365 3.07715 2.55652 3.01512Z" fill="#47585B"/>
</svg>
